# xmcd
#
# Track frame offsets: 
#        150
#        18387
#        35520
#        55286
#        74735
#        88876
#        107265
#        118652
#        135162
#        150050
#        166750
#        187219
#        204635
#        220703
#        235853
#        248549
#        257726
#        281094
#        294682
#        308095
#        318095
#        333960
#        344781
#
# Disc length: 4758 seconds
#
# Revision: 0
# Processed by: cddbd v1.5.1PL0 Copyright (c) Steve Scherf et al.
# Submitted via: ExactAudioCopy v0.95a3
#
DISCID=4c129417
DTITLE=CHET ATKINS and Friends - The Best Of... CD-2
DYEAR=2005
DGENRE=Country
TTITLE0=Poor Boy Blues (with Mark Knopfler)
TTITLE1=I'm You Greatest Fan (with Les Paul)
TTITLE2=One More For The Road (with Suzy Bogguss)
TTITLE3=Gibson Girl (with Jerry Reed)
TTITLE4=News From The Outback (withTommy Emmanuel)
TTITLE5=Just On Time (with Mark Knopfler)
TTITLE6=Hidden Charm
TTITLE7=I Still Miss Someone (with Suzy Bogguss)
TTITLE8=Tahitian Skies (with Mark Knopfler)
TTITLE9=I Want To Be Happy (with Les Paul)
TTITLE10=Here We Are (with Jerry Reed)
TTITLE11=Dixie McGuire (with Tommy Emmanuel)
TTITLE12=You Bring Out The Best In Me (with Suzy Bogguss)
TTITLE13=The Next Time I'm In Town (with Mark Knopfler)
TTITLE14=Lonesome Road
TTITLE15=Tzena Tzena Tzena
TTITLE16=This Is The Beginning (with Suzy Bogguss)
TTITLE17=Out Of Nowhere (with Jim Atkins)
TTITLE18=It Don't Mean A Thing (with Les Paul)
TTITLE19=Solo Soul
TTITLE20=After You've Gone (with Suzy Bogguss)
TTITLE21=When Day Is Done (with Jim Atkins)
TTITLE22=Brazil (with Les Paul)
EXTD=
EXTT0=
EXTT1=
EXTT2=
EXTT3=
EXTT4=
EXTT5=
EXTT6=
EXTT7=
EXTT8=
EXTT9=
EXTT10=
EXTT11=
EXTT12=
EXTT13=
EXTT14=
EXTT15=
EXTT16=
EXTT17=
EXTT18=
EXTT19=
EXTT20=
EXTT21=
EXTT22=
PLAYORDER=
